<?xml version="1.0" standalone="no"?>
<!DOCTYPE svg PUBLIC "-//W3C//DTD SVG 20010904//EN"
 "http://www.w3.org/TR/2001/REC-SVG-20010904/DTD/svg10.dtd">
<svg version="1.0" xmlns="http://www.w3.org/2000/svg"
 width="1206.000000pt" height="1600.000000pt" viewBox="0 0 1206.000000 1600.000000"
 preserveAspectRatio="xMidYMid meet">

<g transform="translate(0.000000,1600.000000) scale(0.100000,-0.100000)"
fill="#000000" stroke="none">
<path d="M9503 15985 c-8 -9 -26 -12 -50 -9 -28 3 -32 2 -18 -4 18 -8 16 -10
-13 -17 -18 -4 -36 -4 -39 -1 -3 3 -12 -2 -21 -10 -10 -11 -26 -14 -51 -10
-24 4 -29 3 -16 -3 20 -8 4 -13 -140 -43 -105 -21 -197 -45 -255 -65 -25 -9
-57 -18 -72 -20 -15 -3 -25 -9 -22 -14 3 -5 -1 -9 -9 -9 -8 0 -43 -16 -77 -35
-34 -19 -67 -32 -73 -28 -5 3 -7 1 -4 -5 4 -6 -18 -24 -50 -42 -74 -41 -221
-138 -250 -163 -12 -10 -26 -16 -33 -12 -6 4 -9 1 -8 -7 2 -8 -6 -12 -22 -10
-17 1 -21 -1 -11 -7 10 -7 8 -12 -10 -24 -12 -9 -27 -13 -32 -10 -6 3 -7 1 -4
-4 8 -13 -40 -46 -54 -38 -5 4 -8 1 -7 -7 2 -7 -3 -12 -9 -11 -7 2 -12 -3 -10
-10 1 -6 -4 -11 -10 -10 -7 2 -12 -3 -10 -10 1 -6 -4 -11 -10 -10 -7 2 -12 0
-11 -5 4 -13 -120 -124 -132 -117 -6 3 -9 1 -8 -7 2 -7 -3 -12 -9 -11 -7 2
-12 -3 -10 -10 1 -6 -4 -11 -11 -10 -6 2 -11 -3 -10 -10 2 -6 -3 -11 -10 -9
-6 1 -11 -4 -10 -10 2 -7 -3 -12 -10 -10 -6 1 -11 -4 -10 -10 2 -7 -2 -12 -9
-11 -7 2 -10 -3 -7 -11 3 -7 -5 -22 -18 -33 -13 -10 -28 -28 -35 -38 -6 -11
-16 -19 -22 -17 -6 1 -10 -4 -9 -10 2 -7 -3 -12 -10 -10 -6 1 -11 -4 -10 -10
2 -7 -3 -12 -10 -10 -6 1 -11 -4 -10 -10 2 -7 -2 -12 -9 -11 -7 2 -10 -4 -7
-12 4 -8 -1 -17 -10 -21 -9 -3 -16 -11 -16 -18 0 -16 -81 -112 -92 -108 -5 1
-6 -3 -2 -9 3 -6 -4 -21 -17 -33 -13 -11 -25 -28 -27 -36 -2 -8 -13 -23 -25
-34 -12 -10 -22 -21 -22 -25 0 -3 -4 -4 -10 -3 -5 2 -7 0 -3 -3 14 -14 -83
-170 -97 -157 -5 4 -5 2 -2 -4 8 -13 -40 -80 -54 -76 -6 1 -8 -2 -4 -8 3 -5
-2 -23 -11 -40 -13 -21 -21 -26 -27 -17 -6 8 -7 6 -3 -6 4 -11 -5 -37 -22 -65
-43 -74 -49 -84 -77 -139 -15 -29 -31 -50 -36 -47 -5 3 -9 -3 -9 -14 0 -11
-17 -50 -38 -89 -21 -38 -49 -90 -61 -116 -13 -27 -27 -44 -33 -40 -6 3 -8 1
-5 -4 4 -6 -6 -34 -22 -63 -16 -29 -31 -48 -33 -44 -3 5 -3 3 -2 -4 5 -17 -45
-108 -58 -104 -5 1 -7 -2 -3 -8 3 -5 -20 -58 -51 -118 -31 -59 -70 -133 -87
-164 -16 -32 -34 -55 -40 -51 -6 3 -7 1 -3 -5 3 -6 -2 -25 -13 -42 -10 -18
-21 -28 -23 -23 -3 4 -3 2 -2 -4 2 -7 1 -20 -3 -29 -5 -13 -8 -13 -15 -2 -7 9
-8 7 -4 -7 6 -21 -48 -114 -56 -98 -3 4 -3 2 -1 -5 5 -21 -26 -74 -39 -66 -6
4 -8 3 -5 -3 12 -18 -140 -266 -156 -256 -5 3 -7 1 -4 -4 11 -17 -139 -266
-154 -257 -5 3 -9 2 -8 -3 1 -4 1 -15 0 -23 -1 -13 -2 -13 -12 0 -8 12 -9 11
-4 -7 7 -26 -81 -177 -97 -167 -7 4 -8 2 -4 -4 10 -16 -63 -144 -76 -135 -6 3
-8 1 -5 -4 10 -15 -42 -105 -55 -97 -6 4 -8 2 -4 -4 6 -10 -12 -44 -138 -259
-27 -46 -53 -80 -59 -76 -6 3 -7 1 -3 -5 4 -6 -5 -35 -20 -63 -20 -41 -28 -49
-36 -38 -8 11 -9 10 -4 -4 7 -22 -183 -359 -197 -350 -6 3 -7 1 -3 -5 3 -6
-28 -73 -71 -149 -42 -76 -90 -164 -106 -196 -17 -34 -33 -55 -39 -51 -7 4 -8
2 -4 -4 10 -17 -86 -195 -97 -180 -6 9 -7 7 -3 -5 7 -22 -23 -79 -37 -70 -6 3
-7 1 -3 -5 4 -6 -14 -52 -40 -103 -35 -68 -49 -88 -56 -78 -8 11 -9 10 -4 -3
3 -10 3 -25 -1 -34 -5 -13 -8 -13 -15 -2 -7 10 -8 8 -4 -5 3 -11 -15 -55 -48
-115 -51 -93 -144 -269 -181 -341 -13 -27 -19 -31 -27 -20 -8 11 -9 10 -4 -3
3 -10 3 -25 -1 -34 -5 -13 -8 -13 -15 -2 -7 10 -8 9 -4 -4 3 -10 3 -25 -1 -34
-5 -13 -8 -13 -15 -2 -7 10 -8 9 -4 -4 3 -10 3 -25 -1 -34 -5 -13 -7 -13 -14
-2 -6 9 -8 5 -7 -12 2 -16 -2 -24 -10 -22 -8 1 -11 -2 -8 -7 3 -5 -8 -33 -24
-62 -17 -30 -51 -94 -76 -143 -35 -68 -48 -86 -56 -75 -8 11 -9 10 -4 -3 3
-10 3 -25 -1 -34 -5 -13 -8 -13 -15 -2 -7 10 -8 9 -4 -5 7 -23 -145 -292 -156
-274 -5 7 -7 2 -6 -13 2 -16 -2 -24 -10 -22 -8 1 -11 -2 -8 -7 8 -13 -83 -163
-95 -156 -5 4 -6 0 -4 -7 7 -17 -46 -99 -58 -91 -6 3 -7 1 -3 -5 9 -14 -47
-105 -59 -95 -4 5 -5 3 -2 -3 3 -6 -1 -21 -10 -33 -12 -18 -17 -20 -25 -10 -6
10 -7 7 -3 -8 7 -26 -22 -76 -39 -66 -6 3 -8 3 -4 -2 11 -12 -21 -67 -34 -59
-7 4 -8 3 -4 -4 7 -12 -87 -166 -96 -157 -2 3 -5 -1 -5 -7 0 -18 -62 -108 -74
-108 -6 0 -8 -4 -5 -9 4 -5 -4 -22 -17 -38 -12 -15 -34 -45 -47 -65 -14 -21
-28 -38 -32 -38 -5 0 -8 -7 -8 -15 0 -8 -5 -15 -10 -15 -6 0 -9 -6 -8 -12 2
-7 -3 -12 -9 -10 -7 1 -13 -7 -13 -18 0 -11 -5 -20 -10 -20 -6 0 -9 -6 -8 -12
2 -7 -4 -11 -12 -10 -8 2 -12 0 -8 -3 11 -11 -21 -67 -34 -59 -6 4 -8 3 -4 -4
3 -6 -4 -21 -16 -34 -13 -13 -24 -30 -26 -37 -6 -30 -87 -132 -97 -123 -5 4
-6 2 -2 -3 10 -18 -85 -149 -98 -137 -5 4 -5 1 -1 -6 9 -14 -28 -65 -39 -54
-5 4 -5 1 -1 -6 8 -14 -48 -85 -59 -74 -3 3 -3 -1 0 -10 4 -10 -3 -23 -17 -35
-13 -10 -24 -24 -26 -31 -4 -22 -45 -72 -53 -66 -5 3 -6 -1 -3 -9 2 -7 -7 -22
-21 -33 -14 -10 -25 -25 -25 -32 0 -7 -4 -10 -10 -7 -5 3 -7 0 -4 -8 2 -7 -7
-22 -21 -33 -14 -10 -25 -22 -25 -27 0 -17 -47 -77 -55 -69 -5 4 -5 2 -2 -4 7
-13 -40 -80 -54 -76 -5 1 -8 -4 -7 -10 2 -7 -3 -12 -10 -10 -8 1 -11 -2 -7 -7
8 -14 -24 -63 -36 -55 -5 3 -8 0 -7 -8 2 -7 -3 -12 -10 -10 -6 1 -11 -4 -10
-10 2 -7 -3 -12 -10 -10 -8 1 -11 -2 -7 -7 8 -14 -24 -63 -36 -55 -5 3 -8 0
-7 -8 2 -7 -3 -12 -10 -10 -8 1 -11 -1 -8 -6 6 -10 -35 -75 -77 -119 -22 -24
-33 -30 -39 -20 -5 7 -7 3 -6 -13 2 -16 -2 -24 -10 -22 -8 1 -10 -2 -7 -8 7
-12 -85 -117 -98 -112 -5 1 -6 -2 -2 -7 7 -12 -124 -157 -137 -153 -5 1 -6 -2
-3 -8 7 -11 -271 -303 -310 -327 -11 -7 -16 -12 -11 -13 5 0 1 -9 -9 -20 -10
-11 -22 -17 -28 -13 -5 3 -7 1 -4 -4 8 -13 -27 -46 -38 -36 -4 5 -5 2 -1 -5 5
-8 -12 -33 -47 -70 -31 -31 -66 -69 -80 -84 -13 -15 -27 -24 -31 -20 -4 4 -6
0 -4 -8 1 -8 -2 -14 -9 -13 -7 2 -10 -3 -7 -11 3 -7 -10 -26 -28 -42 -18 -16
-44 -44 -56 -62 -13 -18 -28 -29 -34 -26 -7 4 -8 2 -4 -5 4 -6 -15 -35 -46
-69 -30 -31 -73 -83 -97 -114 -24 -32 -48 -55 -54 -51 -5 3 -7 1 -4 -4 9 -14
-63 -104 -76 -96 -6 3 -7 1 -3 -5 9 -15 -43 -84 -57 -75 -6 3 -7 1 -3 -6 8
-13 -42 -78 -56 -73 -5 1 -7 -1 -4 -6 3 -5 -13 -33 -34 -63 -22 -30 -48 -65
-57 -79 -10 -14 -38 -52 -63 -85 -76 -100 -88 -119 -110 -158 -11 -21 -25 -35
-31 -32 -5 4 -8 1 -7 -7 2 -7 -3 -12 -10 -10 -8 1 -11 -2 -7 -7 8 -14 -25 -62
-38 -54 -5 3 -7 1 -4 -4 8 -13 -47 -85 -57 -75 -4 3 -4 -1 -1 -9 7 -19 -51
-95 -58 -77 -3 7 -5 2 -4 -12 1 -16 -3 -24 -11 -22 -8 1 -11 -2 -7 -8 3 -5
-12 -33 -33 -62 -34 -47 -76 -112 -108 -169 -6 -10 -17 -27 -25 -36 -8 -10
-21 -30 -28 -45 -8 -15 -19 -25 -24 -21 -6 3 -7 1 -4 -4 4 -6 -6 -34 -22 -63
-18 -32 -31 -47 -34 -39 -3 8 -5 3 -4 -11 1 -16 -3 -24 -11 -22 -8 1 -11 -2
-7 -8 10 -17 -6 -34 -17 -19 -8 11 -9 10 -4 -3 3 -10 3 -25 -1 -34 -5 -13 -8
-13 -15 -2 -7 10 -8 9 -4 -4 3 -10 3 -25 -1 -34 -5 -13 -8 -13 -15 -2 -7 9 -8
8 -4 -5 6 -18 -59 -158 -76 -165 -5 -2 -8 -15 -8 -28 0 -17 -4 -23 -12 -18 -7
4 -8 3 -4 -4 4 -7 -4 -38 -17 -69 -14 -32 -31 -73 -37 -91 -10 -25 -15 -30
-22 -20 -6 9 -7 6 -3 -8 3 -12 2 -29 -2 -39 -6 -18 -7 -18 -15 1 -6 15 -7 13
-3 -7 6 -33 -30 -141 -38 -113 -4 12 -5 8 -5 -11 1 -16 0 -39 -1 -50 l-2 -20
-9 20 c-7 15 -9 10 -9 -22 -1 -25 -6 -43 -12 -43 -7 0 -9 -10 -5 -24 4 -16 0
-30 -9 -40 -8 -8 -15 -28 -15 -45 0 -16 -5 -33 -10 -36 -6 -4 -8 -15 -5 -25 3
-10 -1 -24 -9 -32 -12 -13 -17 -34 -30 -145 -2 -17 -7 -37 -11 -43 -9 -14 -24
-109 -32 -192 -2 -32 -8 -58 -13 -58 -4 0 -8 -41 -9 -92 -1 -51 -6 -95 -11
-98 -6 -4 -10 -121 -9 -290 1 -236 3 -286 16 -298 11 -12 13 -32 9 -91 -2 -44
-2 -59 3 -36 l7 40 6 -50 c15 -115 28 -175 57 -259 16 -49 27 -94 24 -99 -3
-6 -1 -7 5 -3 8 5 12 0 12 -13 0 -12 4 -21 8 -21 13 0 42 -79 36 -98 -5 -13
-4 -14 4 -3 11 15 27 -2 17 -19 -4 -6 -1 -9 7 -8 8 2 12 -6 11 -22 -1 -14 1
-19 4 -12 3 9 12 3 24 -18 11 -17 17 -36 13 -41 -3 -5 0 -8 8 -7 7 2 12 -3 10
-10 -1 -8 1 -11 6 -8 10 6 158 -163 154 -176 -1 -5 2 -7 8 -3 13 8 82 -44 74
-56 -3 -5 0 -8 8 -7 7 2 12 -3 10 -10 -1 -8 2 -11 8 -7 14 8 81 -45 73 -58 -3
-6 -1 -7 6 -3 14 9 63 -28 53 -39 -4 -5 -2 -5 5 -1 16 9 65 -23 56 -38 -3 -6
-3 -8 1 -4 9 8 239 -98 244 -113 2 -5 16 -9 30 -9 21 0 24 -2 12 -10 -12 -8
-10 -10 11 -10 14 0 52 -13 85 -29 32 -15 92 -39 132 -52 55 -17 69 -25 55
-31 -15 -6 -13 -8 7 -7 14 1 34 1 45 0 17 -1 18 -3 5 -11 -11 -7 -3 -10 30
-10 33 0 41 -3 30 -10 -11 -7 -7 -10 18 -10 17 0 32 -5 32 -11 0 -5 4 -8 8 -5
4 3 26 0 48 -5 21 -6 55 -14 74 -19 157 -38 174 -44 150 -52 -16 -5 -8 -6 21
-2 51 5 89 -4 68 -16 -6 -5 11 -8 40 -8 28 -1 57 -4 64 -9 12 -8 82 -18 217
-30 l75 -8 -60 -6 c-51 -6 -45 -7 40 -6 152 0 173 -2 155 -13 -10 -6 45 -10
166 -10 99 0 184 4 190 9 5 5 65 12 134 15 69 2 157 9 195 15 39 5 99 14 135
19 36 6 79 13 95 17 17 3 48 10 70 15 76 16 140 32 165 40 14 4 50 13 80 20
100 22 312 92 473 154 66 25 123 43 128 40 5 -3 9 0 9 5 0 6 9 11 20 11 11 0
20 5 20 10 0 6 9 10 20 10 11 0 20 5 20 10 0 6 9 10 20 10 11 0 20 5 20 10 0
6 12 10 26 10 14 0 32 7 41 15 9 10 24 13 37 10 14 -4 17 -3 8 3 -11 7 -11 10
2 15 9 4 24 4 34 1 13 -4 14 -3 4 4 -11 7 -11 10 2 15 9 4 24 4 34 1 13 -4 14
-3 4 4 -11 7 -10 10 3 16 9 3 26 4 38 2 12 -1 15 -1 7 2 -8 2 30 26 85 52 54
27 103 46 109 43 5 -3 6 -1 3 4 -8 13 40 46 54 38 5 -4 8 -1 7 7 -2 7 3 12 10
11 6 -2 12 1 12 6 0 14 100 82 111 76 5 -4 8 -2 7 4 -4 13 62 62 74 55 5 -3 7
-1 6 4 -4 13 82 83 93 76 5 -3 8 -1 7 4 -4 14 102 103 113 96 5 -3 8 0 7 8 -2
7 3 12 9 11 7 -2 12 3 10 10 -1 6 4 11 10 10 7 -2 12 0 10 5 -1 4 3 9 8 11 6
3 18 15 29 28 10 14 25 22 32 19 8 -3 13 0 11 7 -1 7 4 11 10 10 7 -2 12 3 10
10 -1 6 4 11 10 10 7 -2 12 3 10 10 -1 6 4 11 10 10 7 -2 12 3 10 10 -1 6 4
11 10 10 7 -2 12 0 10 5 -1 4 1 9 5 10 3 2 49 47 101 99 55 55 100 92 106 88
7 -4 10 -1 9 7 -2 7 3 12 9 11 7 -2 12 3 10 10 -1 6 4 11 10 10 7 -2 12 3 10
10 -1 6 4 11 10 10 7 -2 12 3 10 10 -1 6 4 11 10 10 7 -2 12 3 10 10 -1 6 4
11 10 10 7 -2 12 3 10 10 -1 6 4 11 10 10 7 -2 12 2 10 9 -1 6 13 22 32 35 19
12 30 23 26 23 -4 0 5 11 21 25 16 14 32 25 36 25 5 0 7 6 5 13 -1 6 4 11 10
10 7 -2 12 3 10 10 -1 6 5 11 13 9 8 -2 12 0 8 3 -7 7 28 46 90 97 18 15 34
31 35 35 1 4 5 7 9 6 5 -2 7 3 5 10 -1 6 4 11 10 10 7 -2 12 3 10 10 -1 6 4
11 10 10 7 -2 12 3 10 10 -1 6 5 11 13 9 8 -2 12 0 8 4 -8 8 37 54 53 54 5 0
8 6 6 13 -1 6 4 11 10 10 7 -2 12 2 10 9 -1 7 7 17 19 22 11 5 25 19 30 30 5
12 15 20 22 19 7 -2 11 3 9 10 -1 6 4 11 10 10 7 -2 12 3 10 10 -1 6 4 11 10
10 7 -2 12 3 10 10 -1 6 4 11 10 10 7 -2 12 3 10 10 -1 6 4 11 10 10 7 -2 12
3 10 10 -1 6 4 11 10 10 7 -2 12 3 10 10 -1 6 4 11 10 10 7 -2 12 3 10 10 -1
6 4 11 11 9 8 -1 10 2 7 8 -4 6 44 63 109 128 64 64 118 119 119 122 1 3 5 4
9 3 5 -2 7 3 5 10 -1 6 4 11 10 10 7 -2 12 3 10 10 -1 6 4 11 10 10 7 -2 12 3
10 10 -1 6 4 11 10 10 7 -2 12 3 10 10 -1 6 4 11 10 10 7 -2 12 3 10 10 -1 6
4 11 11 9 8 -1 10 2 7 8 -7 12 184 216 198 212 5 -1 6 2 2 8 -7 11 225 256
238 252 5 -1 6 2 2 8 -7 12 124 157 138 152 5 -1 6 2 2 8 -3 5 5 20 18 32 13
13 52 55 87 93 35 39 67 69 72 67 4 -1 7 4 6 10 -2 7 3 12 10 10 8 -1 11 2 8
7 -3 5 13 30 37 56 23 26 48 56 55 67 7 10 18 16 23 12 5 -3 8 0 7 8 -2 7 3
12 10 10 6 -1 11 4 10 10 -2 7 3 12 10 10 8 -1 11 2 8 7 -7 11 82 117 96 113
5 -1 7 2 4 7 -4 5 6 25 22 43 15 18 40 52 56 75 16 24 32 41 36 38 3 -2 7 2 7
9 0 22 85 136 96 129 6 -3 7 -1 3 5 -9 14 47 105 59 95 4 -5 5 -3 2 3 -6 11
26 67 35 59 2 -3 5 1 5 8 0 8 19 43 44 80 29 44 47 62 52 54 6 -8 7 -5 3 6 -7
23 23 78 38 70 6 -3 8 -3 4 2 -11 12 21 67 34 59 7 -4 8 -3 4 4 -9 14 47 105
59 95 4 -5 5 -3 1 4 -4 7 18 53 50 105 32 51 71 116 87 145 17 29 34 50 37 48
4 -2 7 2 7 9 0 23 106 195 116 189 6 -3 7 -1 3 6 -9 14 28 63 39 53 5 -4 5 -2
2 5 -8 13 2 45 12 38 4 -2 8 1 8 8 1 24 85 157 95 150 7 -3 8 -1 4 6 -10 15
64 142 77 134 6 -3 7 -1 3 5 -6 10 7 38 51 107 7 11 22 38 34 60 12 22 34 58
48 80 15 22 33 52 40 67 8 15 19 25 24 21 6 -3 7 -1 3 5 -3 6 19 53 50 104 31
51 62 103 69 115 7 13 16 19 20 15 5 -4 5 -2 1 5 -3 6 13 45 37 85 24 40 63
106 86 145 25 41 48 70 54 66 5 -3 7 -1 3 5 -3 6 24 64 60 129 37 65 76 134
86 153 30 58 188 391 188 397 0 6 38 90 126 280 19 40 34 78 34 84 0 6 9 28
20 48 23 42 78 163 122 269 23 54 33 70 40 60 7 -10 8 -8 4 5 -6 19 108 279
197 447 27 52 87 168 133 257 45 90 85 157 88 150 3 -6 3 -2 1 9 -4 14 13 62
45 130 28 60 74 163 102 229 27 66 77 182 110 258 32 76 70 166 83 200 13 34
53 128 89 210 36 81 66 149 66 151 0 2 27 62 61 132 160 342 259 577 315 753
14 45 19 51 26 35 6 -14 7 -12 3 9 -3 15 1 40 10 57 17 33 52 131 91 253 14
42 29 77 35 77 6 0 7 5 4 10 -9 15 5 51 16 44 6 -3 9 4 8 18 -1 12 -1 32 0 43
1 17 3 18 11 5 7 -11 10 -7 10 17 0 17 5 35 10 38 6 3 10 17 10 31 0 13 4 32
9 42 10 20 65 188 82 252 10 38 13 42 20 25 7 -14 8 -10 4 16 -7 45 3 77 17
57 6 -8 7 0 3 24 -4 26 -1 40 11 52 9 10 14 25 11 37 -3 10 1 26 9 33 8 8 14
30 14 50 0 19 4 37 9 40 5 3 11 23 14 43 3 21 10 58 17 83 6 25 13 64 17 88 3
23 10 45 14 48 5 3 9 17 9 32 1 44 27 130 32 107 3 -11 3 -6 1 12 -5 41 6 85
20 76 7 -4 8 8 4 37 -3 23 -3 59 1 79 5 34 6 35 13 11 6 -16 8 1 7 50 -1 109
1 132 12 125 5 -3 9 139 10 380 0 250 -4 385 -10 385 -6 0 -10 41 -10 103 0
69 -3 97 -10 87 -12 -19 -14 -1 -10 84 1 39 -1 56 -8 52 -11 -6 -15 8 -26 94
-8 65 -57 272 -76 328 -11 30 -17 59 -14 63 3 5 0 9 -5 9 -6 0 -11 9 -11 19 0
11 -4 21 -8 23 -4 2 -25 38 -45 80 -20 43 -64 123 -97 179 -33 55 -57 106 -53
111 3 6 1 8 -4 5 -13 -8 -46 40 -38 54 4 5 1 8 -7 7 -7 -2 -12 3 -10 10 1 6
-2 11 -7 10 -14 -4 -62 63 -54 75 3 6 2 7 -4 4 -13 -8 -86 80 -78 93 4 6 1 9
-7 8 -7 -2 -12 3 -10 10 1 6 -4 11 -10 10 -7 -2 -12 3 -10 10 1 6 -3 11 -9 10
-6 -2 -16 6 -22 16 -14 23 -59 71 -67 71 -3 0 -4 3 -2 8 1 4 -4 6 -10 5 -7 -2
-12 3 -10 10 1 6 -4 11 -10 10 -7 -2 -12 3 -10 10 1 6 -4 11 -10 10 -7 -2 -12
3 -10 10 1 8 -2 11 -8 7 -7 -4 -35 17 -64 46 -30 30 -60 55 -67 57 -8 2 -26
16 -40 33 -15 16 -32 29 -38 29 -7 0 -9 5 -6 10 3 6 -2 10 -12 10 -10 0 -25 9
-33 20 -8 11 -19 20 -26 20 -20 0 -174 106 -166 115 4 4 2 5 -5 1 -16 -9 -65
23 -56 37 3 5 1 7 -5 3 -6 -3 -34 8 -63 25 -29 17 -112 60 -184 96 -71 36
-131 69 -133 74 -2 5 -12 9 -23 9 -11 0 -41 11 -67 24 -26 13 -60 26 -76 30
-24 6 -27 9 -15 18 11 8 10 9 -5 4 -23 -8 -112 24 -96 34 7 4 -1 7 -17 7 -15
0 -59 12 -98 28 -38 15 -91 34 -117 42 -27 8 -48 19 -48 24 0 4 -13 6 -30 3
-22 -5 -31 -2 -36 10 -5 13 -23 16 -108 16 -74 -1 -104 -5 -113 -15z m2 -130
c-55 -13 -119 -30 -141 -38 -47 -17 -193 -41 -201 -34 -3 3 17 9 44 12 26 4
73 14 103 22 30 9 67 18 83 20 15 3 30 9 33 14 3 5 17 9 32 9 15 0 34 5 42 10
8 5 35 9 60 9 39 0 31 -4 -55 -24z m335 7 c19 -5 58 -18 85 -27 28 -10 56 -20
64 -22 8 -2 12 -6 9 -8 -3 -3 -49 8 -104 25 -54 16 -110 30 -124 30 -14 0 -32
5 -40 11 -18 12 56 7 110 -9z m-765 -112 c-46 -21 -65 -24 -65 -10 0 6 10 10
23 10 12 0 29 5 37 10 8 5 22 9 30 9 8 0 -3 -9 -25 -19z m-105 -34 c-8 -8 -33
-17 -55 -20 l-40 -6 40 19 c51 25 76 28 55 7z m-125 -45 c-7 -12 -179 -111
-191 -111 -5 0 -28 -15 -51 -33 -23 -17 -72 -52 -108 -77 -119 -80 -260 -193
-374 -299 -153 -143 -181 -157 -43 -22 140 137 210 195 383 315 111 78 371
236 386 236 2 0 2 -4 -2 -9z m1712 -100 c54 -27 139 -81 129 -81 -4 0 -28 12
-54 27 -66 37 -190 98 -233 113 -20 7 -47 21 -60 31 -24 18 136 -47 218 -90z
m-1249 -12 c97 -28 110 -30 145 -18 60 20 103 16 132 -11 54 -51 17 -122 -85
-159 -51 -19 -67 -31 -100 -76 -41 -56 -57 -64 -175 -91 -16 -4 -90 -33 -163
-65 -266 -118 -301 -122 -404 -52 -53 35 -68 51 -66 67 2 11 35 46 75 78 90
73 166 168 193 242 20 52 27 59 78 86 52 26 66 29 161 30 87 0 120 -5 209 -31z
m1558 -170 c68 -45 124 -83 124 -85 0 -11 -20 -2 -45 21 -16 13 -69 48 -118
77 -82 48 -108 68 -91 68 3 0 62 -37 130 -81z m383 -299 c199 -183 436 -500
506 -675 l16 -40 -20 25 c-12 14 -23 33 -27 43 -11 33 -99 179 -154 257 -77
110 -175 222 -286 330 -188 183 -211 222 -35 60z m-1259 79 c170 -26 261 -110
379 -347 77 -153 134 -319 170 -495 16 -78 49 -198 74 -267 24 -69 47 -145 51
-170 7 -51 1 -39 -34 75 -38 122 -141 299 -253 430 -107 126 -310 300 -452
386 -140 85 -396 176 -616 221 -72 14 -105 24 -93 29 11 4 62 21 114 39 52 18
127 44 165 57 144 53 326 68 495 42z m-2043 -191 c-9 -13 -37 -45 -63 -73 -25
-27 -77 -90 -115 -140 -79 -104 -134 -169 -120 -140 25 54 299 389 310 379 2
-2 -3 -14 -12 -26z m803 -2 c0 -3 -24 -18 -54 -36 -30 -17 -68 -46 -85 -66
-17 -19 -31 -30 -31 -25 0 23 67 85 114 106 60 28 56 26 56 21z m476 -36 c249
-45 501 -130 651 -221 188 -113 411 -318 529 -486 103 -147 184 -359 184 -479
0 -41 -5 -59 -23 -80 l-23 -26 -41 21 c-56 28 -76 58 -166 241 -98 199 -160
293 -272 406 -169 172 -399 291 -675 352 -93 21 -450 54 -500 47 -181 -26
-197 -27 -218 -16 -29 16 -31 87 -3 123 50 64 254 131 412 137 19 0 85 -8 145
-19z m-118 -315 c212 -17 275 -27 386 -62 193 -61 365 -157 490 -273 127 -120
210 -250 350 -551 46 -99 141 -166 222 -156 38 4 44 2 40 -12 -3 -9 -17 -64
-31 -122 -13 -59 -41 -151 -61 -205 -67 -181 -66 -181 -37 -292 21 -82 24
-111 20 -187 -6 -84 -22 -177 -45 -252 -15 -46 -78 -163 -107 -197 -14 -16
-25 -33 -25 -37 0 -4 -30 -37 -66 -74 -76 -77 -227 -180 -287 -196 -112 -30
-120 -39 -123 -127 l-3 -67 -53 -25 c-46 -22 -66 -25 -158 -24 -85 0 -120 5
-185 27 -103 34 -225 109 -320 197 -41 39 -79 70 -84 70 -15 0 -41 -30 -41
-46 0 -36 131 -149 259 -224 207 -120 456 -142 610 -55 48 28 55 30 46 15 -4
-6 -27 -20 -51 -32 -53 -25 -70 -48 -90 -120 -23 -87 -18 -121 26 -202 22 -40
40 -79 40 -87 0 -8 -20 22 -44 66 -61 109 -105 160 -133 151 -38 -12 -36 -39
6 -102 21 -32 42 -70 45 -84 5 -15 4 -20 -1 -13 -14 19 -53 -13 -53 -42 0 -13
9 -47 20 -75 27 -69 24 -75 -7 -15 -14 28 -62 86 -108 131 -243 238 -591 379
-1025 414 -205 16 -275 28 -327 52 -60 28 -233 199 -476 469 -97 108 -191 209
-209 224 -46 39 -109 64 -194 76 -224 34 -444 -112 -514 -339 -43 -138 -18
-367 63 -578 74 -191 155 -335 274 -482 86 -105 178 -184 320 -275 54 -34 139
-92 188 -128 205 -150 399 -255 621 -337 172 -63 286 -88 552 -118 l43 -5 -47
-49 c-25 -26 -54 -62 -64 -78 -10 -16 -24 -33 -30 -37 -25 -15 -340 -464 -340
-484 0 -5 -4 -11 -9 -13 -4 -1 -25 -28 -45 -58 -20 -30 -52 -79 -71 -108 -19
-29 -35 -57 -35 -62 0 -6 -4 -10 -8 -10 -4 0 -23 -26 -42 -57 -19 -32 -37 -60
-41 -63 -3 -3 -47 -72 -97 -155 -50 -82 -95 -154 -99 -160 -5 -5 -31 -41 -58
-80 -70 -98 -112 -142 -256 -264 -134 -113 -249 -201 -539 -413 -25 -18 -47
-35 -50 -38 -3 -3 -21 -17 -40 -30 -45 -31 -45 -32 -170 -135 -150 -125 -306
-292 -350 -375 -7 -14 -16 -27 -20 -30 -19 -14 -233 -353 -302 -480 -166 -302
-232 -472 -289 -745 -49 -233 -153 -440 -353 -704 -110 -144 -252 -284 -401
-396 -46 -35 -166 -115 -172 -115 -8 0 -128 -84 -189 -132 -105 -82 -169 -176
-200 -293 -8 -33 -25 -72 -37 -87 -50 -62 -226 -267 -272 -319 -27 -30 -84
-95 -125 -143 -41 -49 -100 -116 -131 -150 -31 -33 -84 -95 -119 -136 -50 -60
-181 -208 -236 -264 -5 -6 -47 -54 -93 -106 -46 -52 -131 -146 -189 -208 -59
-63 -120 -130 -137 -150 -16 -20 -52 -61 -80 -92 -27 -31 -81 -93 -120 -138
-204 -238 -475 -468 -644 -544 -168 -77 -383 -113 -518 -89 -249 46 -340 212
-274 503 17 76 86 240 171 408 173 341 338 584 616 908 75 86 178 211 229 277
52 66 164 190 251 275 386 380 364 356 364 401 0 90 -54 131 -182 137 -145 8
-250 -48 -284 -150 -16 -50 -16 -135 2 -226 9 -47 -20 -43 -34 6 -50 172 -2
310 132 380 43 22 67 27 156 30 94 3 110 1 150 -20 30 -15 55 -39 75 -70 17
-26 35 -48 41 -48 19 0 269 298 387 461 172 238 292 452 417 744 105 246 173
381 276 547 81 131 212 312 303 418 31 36 67 78 81 94 14 17 50 57 80 91 200
222 255 290 313 390 107 185 153 251 339 491 35 45 77 99 93 120 17 22 38 48
48 59 30 33 135 192 161 243 24 49 38 100 56 212 22 131 68 254 168 444 248
475 319 662 412 1091 64 292 68 312 95 430 24 107 47 273 60 445 4 47 16 132
26 189 10 58 19 128 19 157 0 29 4 55 9 58 5 4 24 -38 41 -91 92 -281 256
-522 495 -733 116 -102 119 -104 145 -90 38 20 22 47 -86 147 -250 231 -386
427 -469 677 -46 137 -65 232 -65 327 0 78 0 79 25 79 14 0 25 6 25 12 0 7 14
42 31 78 17 36 44 92 59 125 16 33 40 85 54 114 32 68 33 81 4 73 -47 -12 64
88 137 123 194 96 401 62 624 -102 87 -64 109 -69 126 -26 15 40 -183 174
-332 226 -78 27 -101 30 -198 30 -128 -1 -213 -22 -302 -74 -73 -43 -166 -135
-221 -218 -50 -75 -54 -71 -11 9 59 111 229 252 321 266 32 6 59 28 176 144
76 76 183 172 238 213 145 112 137 103 129 151 -14 85 -16 122 -5 106 5 -8 10
-28 10 -45 1 -42 33 -159 62 -225 45 -101 228 -274 358 -340 106 -53 291 -96
368 -84 l47 7 -54 -59 c-186 -203 -289 -414 -261 -538 40 -180 195 -168 468
37 108 81 192 156 192 171 0 7 -9 21 -20 31 -23 21 1 35 -206 -122 -123 -94
-221 -149 -281 -159 -37 -6 -43 -4 -59 21 -24 36 -22 105 6 177 28 75 119 212
206 311 38 43 76 92 84 108 10 20 23 29 40 29 76 1 177 59 294 170 l58 55 -8
-35 c-15 -60 -5 -223 17 -297 80 -258 308 -467 619 -568 74 -24 102 -28 215
-29 148 -1 192 8 306 65 163 81 299 224 385 404 48 100 74 220 74 337 0 208
-106 440 -258 565 -177 145 -568 231 -813 179 -74 -16 -188 -70 -239 -113
l-33 -27 6 49 c21 156 -47 345 -171 476 -149 159 -489 339 -640 339 -44 0 -48
15 -10 40 18 12 69 59 113 104 44 45 114 112 155 149 l74 67 66 1 c36 0 88 4
115 9 73 11 74 11 273 -5z m-1648 -304 c-11 -22 -25 -43 -31 -47 -11 -7 1 21
29 64 23 35 24 26 2 -17z m4411 -209 c32 -153 51 -263 68 -403 6 -47 15 -98
20 -112 11 -28 2 -147 -9 -126 -4 8 -10 64 -14 124 -4 61 -13 142 -21 180 -7
39 -16 95 -20 125 -9 83 -55 301 -70 335 -25 56 -25 80 0 27 14 -29 34 -96 46
-150z m-3822 106 c-2 -2 -26 -14 -54 -28 -158 -79 -365 -314 -411 -465 -8 -27
-18 -71 -21 -97 -5 -44 -23 -69 -23 -32 0 36 34 163 56 205 52 103 191 267
288 339 58 42 156 93 165 85 2 -3 2 -6 0 -7z m-719 -125 c-80 -149 -134 -242
-143 -243 -9 0 -5 8 86 170 85 152 96 170 103 170 3 0 -18 -44 -46 -97z m1106
71 c126 -36 365 -185 466 -292 117 -124 167 -265 153 -427 -8 -96 -28 -152
-99 -279 -47 -83 -81 -129 -146 -195 -113 -114 -211 -187 -275 -203 -74 -18
-306 -15 -380 5 -177 49 -394 214 -462 352 -73 150 -84 410 -25 601 25 79 153
241 256 323 78 62 197 120 268 131 66 10 177 2 244 -16z m-1321 -461 c-56
-106 -119 -208 -104 -168 12 33 163 305 166 301 3 -3 -25 -62 -62 -133z m2642
-244 c224 -51 344 -101 425 -177 73 -69 140 -175 174 -278 27 -82 29 -100 28
-229 0 -133 -2 -144 -33 -228 -42 -112 -110 -215 -197 -298 -115 -110 -219
-163 -359 -184 -310 -48 -719 191 -829 482 -69 185 -53 395 43 562 21 36 50
87 64 112 37 65 141 158 220 197 36 17 75 32 84 32 10 0 25 5 33 10 21 13 289
13 347 -1z m2232 -346 c1 -125 -3 -204 -9 -208 -7 -4 -10 72 -9 222 0 137 4
220 9 208 5 -11 9 -111 9 -222z m-5128 120 c-11 -22 -27 -45 -35 -52 -9 -8 -1
14 16 48 18 33 34 57 36 52 2 -5 -6 -27 -17 -48z m-78 -140 c-8 -22 -74 -123
-80 -123 -5 0 54 107 70 128 13 17 17 15 10 -5z m-97 -172 c-9 -17 -28 -47
-41 -68 -14 -21 -31 -46 -38 -57 -6 -10 -20 -29 -29 -41 -10 -13 -18 -26 -18
-29 0 -3 -17 -33 -37 -68 -21 -35 -42 -71 -48 -80 -87 -150 -260 -430 -280
-453 -33 -37 -33 -38 97 180 198 332 400 656 406 651 2 -2 -4 -18 -12 -35z
m5277 -163 c-1 -34 -7 -74 -12 -88 -5 -14 -12 -52 -15 -85 -10 -103 -48 -299
-81 -410 -15 -49 -15 -49 -11 -10 4 38 17 105 51 260 17 79 45 274 45 316 0
25 15 79 23 79 1 0 2 -28 0 -62z m-4400 -425 l49 -52 -31 -15 c-44 -23 -76
-20 -100 11 -22 26 -21 45 2 91 14 30 23 26 80 -35z m-949 -48 c-21 -67 -26
-102 -27 -210 -1 -71 1 -155 6 -185 l7 -55 -17 55 c-36 116 -12 401 40 468 18
24 16 6 -9 -73z m1099 -117 c8 -13 43 -52 77 -87 57 -60 60 -66 44 -78 -48
-35 -149 -45 -188 -19 -55 35 -51 93 10 173 30 39 37 40 57 11z m4117 -104 c0
-8 -4 -14 -10 -14 -5 0 -10 9 -10 21 0 11 5 17 10 14 6 -3 10 -13 10 -21z
m-5685 -23 c-7 -22 -127 -235 -167 -296 -14 -22 -44 -72 -66 -111 -23 -39 -48
-77 -57 -84 -18 -15 10 35 145 260 48 80 99 169 114 198 26 52 43 69 31 33z
m5654 -89 c-23 -73 -28 -80 -28 -45 -1 17 4 35 9 38 6 3 10 23 10 43 1 30 2
34 11 19 7 -12 7 -29 -2 -55z m-3806 -81 c42 -43 77 -81 77 -85 0 -3 -30 -30
-67 -61 -58 -48 -72 -55 -110 -55 -84 0 -115 66 -74 155 21 46 77 125 89 125
4 0 42 -35 85 -79z m3750 -108 c-13 -43 -29 -96 -36 -118 -8 -26 -13 -34 -15
-21 -6 29 54 216 69 216 3 0 -5 -35 -18 -77z m-3598 -23 c3 -5 33 -19 66 -31
47 -17 59 -26 53 -38 -3 -9 -10 -28 -14 -43 -5 -16 -18 -41 -30 -58 -17 -24
-29 -30 -59 -30 -51 0 -91 31 -91 71 0 33 46 139 60 139 5 0 11 -4 15 -10z
m360 -70 c99 0 103 -5 67 -77 -27 -53 -90 -123 -110 -123 -11 0 -57 50 -71 77
-12 24 -15 116 -4 127 4 4 17 5 28 2 11 -3 52 -6 90 -6z m275 -41 c25 -5 62
-12 83 -15 21 -4 40 -11 43 -16 8 -13 -63 -96 -98 -114 -29 -15 -32 -15 -57 4
-35 26 -58 67 -66 121 l-7 44 28 -8 c16 -4 49 -12 74 -16z m388 -122 c34 -26
-17 -53 -60 -31 -30 16 -70 63 -63 75 5 8 98 -25 123 -44z m-3341 -18 c-30
-57 -100 -160 -105 -155 -2 3 15 36 38 73 24 37 50 79 57 91 19 31 27 22 10
-9z m1308 -43 c27 -27 45 -83 45 -144 0 -31 -4 -42 -12 -40 -15 5 -127 177
-127 196 -1 23 68 14 94 -12z m-1077 -162 c-2 -12 -26 -23 -73 -36 -164 -45
-307 -137 -346 -223 -20 -44 -25 -130 -9 -185 9 -33 44 -98 95 -173 l19 -29
-24 4 c-35 4 -116 136 -131 210 -17 85 -5 157 38 220 20 29 44 58 52 64 9 7
30 24 46 38 36 31 113 69 187 92 29 9 64 20 78 24 44 15 72 12 68 -6z m5502
-80 c-18 -48 -44 -122 -57 -163 -28 -86 -64 -173 -69 -168 -4 4 91 291 111
334 8 17 15 36 15 43 0 16 21 53 27 47 3 -3 -10 -45 -27 -93z m-4170 37 c14
-35 -5 -191 -24 -191 -6 0 -42 31 -79 68 -77 77 -77 75 13 126 58 33 75 33 90
-3z m2490 -54 c7 -21 10 -40 8 -42 -2 -3 -12 18 -21 47 -9 28 -12 47 -8 42 5
-5 14 -26 21 -47z m-2251 -83 c18 -23 21 -41 21 -125 0 -54 -4 -100 -9 -104
-5 -3 -51 22 -102 55 -52 33 -97 60 -101 60 -20 0 -4 30 40 72 78 76 116 86
151 42z m2287 -34 c5 -24 3 -32 -4 -25 -5 6 -13 26 -17 45 -5 25 -4 32 4 25 6
-6 14 -26 17 -45z m-189 -82 c-2 -13 -4 -5 -4 17 -1 22 1 32 4 23 2 -10 2 -28
0 -40z m91 -85 c-7 -207 -58 -322 -208 -474 -115 -116 -253 -194 -400 -224
-54 -11 -34 0 74 40 169 63 259 124 361 243 115 133 157 249 159 427 1 63 5
115 10 115 4 0 6 -57 4 -127z m99 95 c-3 -7 -5 -2 -5 12 0 14 2 19 5 13 2 -7
2 -19 0 -25z m-2011 -63 c22 -33 28 -89 19 -180 -5 -60 -10 -75 -21 -71 -29
11 -186 120 -191 132 -7 18 44 81 91 116 48 35 80 36 102 3z m2021 -27 c-2
-13 -4 -5 -4 17 -1 22 1 32 4 23 2 -10 2 -28 0 -40z m-4464 -64 c-68 -125 -98
-174 -105 -174 -6 0 53 113 114 220 39 68 31 27 -9 -46z m4268 24 c0 -24 -5
-56 -11 -73 -9 -26 -9 -24 -5 19 3 27 5 62 5 79 0 17 3 28 6 24 4 -3 6 -26 5
-49z m-1547 -127 c15 -25 21 -59 24 -123 3 -48 1 -88 -4 -88 -18 0 -224 104
-224 113 0 37 126 140 164 135 11 -2 29 -18 40 -37z m3130 -202 c-32 -79 -59
-138 -62 -131 -2 6 15 60 39 119 49 127 73 177 77 164 2 -5 -23 -73 -54 -152z
m-2820 120 c28 -22 51 -88 62 -182 l6 -58 -38 6 c-56 10 -223 65 -229 75 -11
19 74 134 119 161 39 24 47 24 80 -2z m1353 -79 c-117 -232 -383 -441 -592
-464 -27 -3 -41 -3 -30 0 66 17 158 51 210 77 176 87 340 257 416 430 13 31
25 49 27 41 2 -7 -12 -45 -31 -84z m-1082 -113 c10 -42 16 -80 13 -83 -6 -5
-136 14 -150 22 -23 15 14 97 63 138 41 35 51 25 74 -77z m-3525 -34 c-33 -67
-68 -127 -77 -134 -12 -10 -10 -2 7 31 55 110 123 231 126 227 3 -2 -23 -58
-56 -124z m4205 -29 c-52 -40 -169 -85 -220 -83 -11 0 5 7 35 15 30 8 84 29
120 48 71 36 96 44 65 20z m-4303 -141 c-12 -30 -143 -287 -152 -298 -13 -17
-92 -158 -127 -229 -28 -56 -73 -125 -73 -112 0 7 33 70 182 341 64 116 128
236 152 283 17 34 30 44 18 15z m5994 -138 c-29 -61 -73 -154 -96 -208 -24
-53 -44 -96 -46 -94 -10 9 146 360 179 405 25 32 12 -3 -37 -103z m-227 -512
c-5 -15 -23 -56 -38 -92 -15 -36 -40 -96 -55 -133 -16 -38 -33 -68 -38 -68 -7
0 -7 4 0 13 6 6 28 59 50 117 39 105 78 190 87 190 2 0 0 -12 -6 -27z m-6149
-53 c-6 -11 -13 -20 -16 -20 -2 0 0 9 6 20 6 11 13 20 16 20 2 0 0 -9 -6 -20z
m-40 -76 c-23 -42 -40 -63 -40 -50 0 12 52 97 57 93 2 -3 -6 -22 -17 -43z
m-74 -141 c-78 -153 -506 -838 -657 -1053 -21 -30 -82 -120 -135 -200 -90
-135 -191 -279 -204 -290 -3 -3 -17 -21 -30 -40 -14 -19 -33 -44 -43 -55 -19
-20 -19 -20 -3 10 9 17 25 41 35 55 66 87 172 237 268 380 60 91 128 192 150
225 198 292 484 749 580 928 49 90 82 124 39 40z m6051 -235 c-25 -57 -52
-121 -61 -142 -9 -22 -19 -37 -21 -34 -3 3 4 30 15 59 34 86 103 230 107 225
3 -2 -15 -51 -40 -108z m-279 -600 c-96 -194 -188 -382 -204 -417 -15 -35 -30
-59 -31 -54 -6 18 143 334 222 473 8 14 51 101 96 193 44 93 83 166 86 163 3
-3 -73 -164 -169 -358z m-252 -520 c-8 -18 -35 -80 -60 -138 -58 -132 -78
-176 -99 -220 -16 -34 -16 -34 -10 -5 11 49 167 395 179 395 2 0 -2 -15 -10
-32z m-6241 -238 c0 -7 -31 -26 -70 -41 -116 -47 -155 -87 -163 -167 -3 -40 1
-61 21 -104 15 -29 33 -63 42 -75 25 -32 0 -39 -30 -8 -73 79 -93 209 -42 282
37 53 80 83 157 109 70 24 85 25 85 4z m-452 -197 c-104 -153 -154 -220 -184
-248 l-33 -30 29 40 c15 22 42 58 60 80 17 22 60 82 95 132 35 51 65 91 68 88
2 -2 -13 -30 -35 -62z m6517 27 c0 -5 -5 -10 -11 -10 -5 0 -7 5 -4 10 3 6 8
10 11 10 2 0 4 -4 4 -10z m-85 -190 c-9 -18 -23 -49 -30 -69 -23 -63 -56 -133
-61 -128 -6 6 60 168 84 209 22 37 27 27 7 -12z m-6704 -207 c-33 -49 -73
-104 -91 -123 -18 -19 -39 -45 -47 -58 -9 -12 -18 -21 -20 -18 -3 2 10 24 29
48 150 200 180 238 183 238 3 0 -22 -39 -54 -87z m5743 35 c36 -180 1 -348
-90 -427 -73 -65 -166 -89 -265 -70 -71 13 -109 32 -109 54 0 20 9 19 65 -5
101 -43 238 -13 305 68 56 68 80 192 62 327 -5 39 -7 75 -5 82 8 21 31 3 37
-29z m717 -365 c-12 -20 -14 -14 -5 12 4 9 9 14 11 11 3 -2 0 -13 -6 -23z
m-6750 -41 c-5 -9 -20 -26 -32 -37 -24 -20 -24 -20 -9 0 36 51 60 72 41 37z
m-62 -84 c-14 -26 -146 -183 -183 -217 -14 -14 -26 -29 -26 -34 0 -16 -71 -95
-138 -154 -64 -55 -65 -56 -28 -13 22 25 57 63 79 85 22 22 56 60 76 85 67 85
224 270 228 270 2 0 -2 -10 -8 -22z m6740 -20 c-7 -13 -27 -45 -44 -73 -18
-27 -65 -108 -105 -180 -41 -71 -86 -148 -100 -170 -15 -22 -41 -67 -59 -100
-17 -33 -56 -100 -86 -150 -29 -49 -74 -126 -98 -170 -68 -121 -273 -467 -291
-490 -46 -57 18 61 180 332 89 148 181 305 292 498 41 72 106 182 143 246 38
63 69 119 69 124 0 4 16 30 35 56 19 27 35 52 35 56 0 7 31 43 37 43 2 0 -2
-10 -8 -22z m-1539 -217 c0 -14 -18 -23 -30 -16 -6 4 -8 11 -5 16 8 12 35 12
35 0z m-5686 -303 c-19 -33 -88 -112 -180 -208 -56 -58 -120 -127 -141 -155
-22 -27 -60 -68 -84 -91 -24 -23 -69 -73 -99 -112 -30 -39 -61 -73 -68 -76 -8
-4 -10 -1 -6 7 11 17 117 139 194 222 36 39 137 151 224 248 148 165 178 196
160 165z m-634 -717 c-5 -11 -36 -53 -68 -93 -32 -40 -86 -111 -120 -158 -35
-47 -87 -115 -115 -151 -64 -81 -87 -112 -127 -167 -17 -24 -34 -41 -37 -38
-8 8 460 626 474 626 2 0 -1 -9 -7 -19z m7011 -215 c-28 -48 -70 -117 -94
-154 -23 -37 -60 -98 -81 -135 -21 -38 -40 -66 -42 -64 -3 2 11 32 30 65 20
33 50 87 68 120 39 71 162 262 166 258 1 -2 -20 -42 -47 -90z m-233 -388 c-8
-13 -41 -66 -73 -118 -161 -264 -282 -456 -349 -557 -11 -18 -25 -33 -29 -33
-4 0 7 21 25 48 18 26 40 58 48 72 33 56 113 189 152 250 22 36 70 115 106
175 64 107 118 185 129 185 3 0 -1 -10 -9 -22z m-6835 -38 c15 -7 27 -20 27
-27 0 -12 -8 -13 -42 -6 -142 27 -263 -9 -349 -106 -65 -73 -88 -142 -71 -209
17 -64 76 -148 137 -194 63 -47 70 -63 24 -54 -43 8 -137 100 -170 164 -35 70
-39 175 -8 238 49 99 155 182 262 204 54 12 154 6 190 -10z m-433 -2 c0 -2
-32 -48 -70 -103 -90 -127 -149 -213 -203 -295 -40 -60 -77 -101 -77 -86 0 3
44 68 98 143 54 76 104 148 112 159 73 107 140 195 140 182z m-506 -745 c-70
-126 -254 -484 -254 -497 0 -11 -99 -209 -100 -198 0 16 113 269 189 421 65
130 235 421 245 421 2 0 -34 -66 -80 -147z m7296 30 c-46 -79 -208 -287 -340
-438 -25 -28 -88 -101 -140 -161 -145 -167 -351 -394 -357 -394 -10 0 95 126
189 225 36 38 81 89 100 112 18 23 87 104 152 179 135 155 251 299 344 427 64
90 90 114 52 50z m-7709 -928 c-34 -98 -61 -180 -61 -183 0 -3 -3 -3 -6 1 -3
3 -1 20 5 39 6 18 22 69 36 113 28 88 78 215 83 210 2 -1 -24 -83 -57 -180z
m6768 -192 c-14 -16 -81 -89 -150 -163 -68 -74 -167 -182 -219 -240 -118 -132
-456 -480 -410 -422 19 24 112 123 205 220 94 97 184 195 200 217 16 22 64 74
106 115 41 41 96 102 121 135 25 33 71 84 101 113 59 55 88 71 46 25z m-6845
-38 c-4 -8 -8 -15 -10 -15 -2 0 -4 7 -4 15 0 8 4 15 10 15 5 0 7 -7 4 -15z
m-22 -100 c-6 -34 -12 -32 -12 6 0 16 4 28 9 25 4 -3 6 -17 3 -31z m5281 -115
c38 -74 39 -77 35 -160 -4 -66 -11 -98 -33 -143 -41 -85 -105 -151 -183 -189
-63 -31 -74 -33 -167 -32 -112 0 -164 17 -229 74 -62 55 -43 83 22 30 51 -40
98 -58 175 -66 154 -16 272 51 348 196 20 38 24 59 24 140 0 88 -2 99 -32 155
-38 68 -40 78 -16 73 9 -2 34 -37 56 -78z m-5306 38 c-3 -8 -6 -5 -6 6 -1 11
2 17 5 13 3 -3 4 -12 1 -19z m-33 -215 c-9 -70 -19 -178 -23 -240 -3 -61 -10
-115 -15 -120 -17 -16 4 244 34 432 20 124 23 71 4 -72z m5964 -600 c-88 -96
-306 -313 -313 -313 -16 0 323 349 339 350 4 0 -7 -17 -26 -37z m-5988 -249
c6 -65 13 -141 16 -169 4 -27 3 -46 -2 -42 -10 10 -22 100 -30 237 -9 142 4
122 16 -26z m5450 -279 c0 -7 -262 -245 -294 -267 -33 -21 -14 -3 172 174 91
86 122 110 122 93z m-5360 -151 c0 -19 89 -182 141 -259 65 -96 324 -345 358
-345 6 0 11 -4 11 -8 0 -5 12 -14 26 -21 15 -6 24 -14 21 -17 -12 -13 -167
106 -275 211 -121 116 -193 213 -260 351 -42 87 -63 156 -36 119 8 -10 14 -24
14 -31z m4925 -239 c-232 -203 -439 -328 -815 -494 -80 -35 -164 -72 -187 -82
-24 -11 -49 -19 -56 -19 -7 0 -17 -4 -22 -9 -24 -21 -482 -177 -492 -167 -3 3
-15 0 -27 -6 -11 -6 -38 -15 -58 -20 -21 -4 -55 -12 -75 -17 -21 -5 -54 -12
-73 -15 l-35 -6 40 16 c22 8 96 30 165 49 141 37 305 86 365 109 22 8 46 15
53 16 7 0 37 11 65 24 29 13 144 63 257 110 202 85 267 116 445 211 91 48 304
194 360 247 29 26 114 86 125 87 3 0 -13 -15 -35 -34z m-3582 -752 c-7 -2 -19
-2 -25 0 -7 3 -2 5 12 5 14 0 19 -2 13 -5z m64 -19 c-3 -3 -12 -4 -19 -1 -8 3
-5 6 6 6 11 1 17 -2 13 -5z m1627 -74 c-9 -9 -46 -16 -244 -42 -98 -13 -662
-22 -720 -11 -29 5 84 10 320 14 216 3 396 11 440 18 78 13 175 27 200 30 9 1
11 -2 4 -9z m-1209 -10 c16 -7 11 -9 -20 -9 -22 0 -49 4 -60 9 -16 7 -11 9 20
9 22 0 49 -4 60 -9z m150 -20 c14 -6 5 -9 -35 -9 -30 0 -64 4 -75 9 -14 6 -5
9 35 9 30 0 64 -4 75 -9z"/>
<path d="M7502 13118 c-28 -28 -4 -149 52 -263 71 -143 204 -253 376 -312 113
-38 121 -39 146 -12 27 30 8 51 -68 71 -135 35 -235 96 -316 192 -58 69 -111
178 -119 246 -3 30 -10 63 -15 73 -10 20 -39 22 -56 5z"/>
<path d="M8165 13661 c-27 -5 -30 -10 -33 -49 -3 -37 0 -43 21 -51 14 -6 28
-15 32 -20 8 -14 82 -14 90 -1 3 5 1 19 -6 31 -9 18 -8 24 5 31 25 14 19 36
-14 53 -30 16 -46 17 -95 6z"/>
<path d="M9727 12883 c-15 -15 -20 -16 -39 -4 -19 12 -23 11 -35 -5 -7 -10
-13 -24 -13 -31 0 -7 -6 -13 -14 -13 -7 0 -19 -7 -26 -15 -10 -12 -4 -24 36
-68 49 -53 49 -53 86 -42 55 16 63 27 44 62 -13 27 -13 32 0 52 19 26 15 75
-6 79 -8 1 -23 -5 -33 -15z"/>
<path d="M9188 15913 c6 -2 18 -2 25 0 6 3 1 5 -13 5 -14 0 -19 -2 -12 -5z"/>
<path d="M9088 15893 c7 -3 16 -2 19 1 4 3 -2 6 -13 5 -11 0 -14 -3 -6 -6z"/>
<path d="M11951 14044 c0 -11 3 -14 6 -6 3 7 2 16 -1 19 -3 4 -6 -2 -5 -13z"/>
<path d="M11952 12220 c0 -14 2 -19 5 -12 2 6 2 18 0 25 -3 6 -5 1 -5 -13z"/>
<path d="M11591 11014 c0 -11 3 -14 6 -6 3 7 2 16 -1 19 -3 4 -6 -2 -5 -13z"/>
<path d="M221 3304 c0 -11 3 -14 6 -6 3 7 2 16 -1 19 -3 4 -6 -2 -5 -13z"/>
<path d="M61 1354 c0 -11 3 -14 6 -6 3 7 2 16 -1 19 -3 4 -6 -2 -5 -13z"/>
<path d="M3918 243 c7 -3 16 -2 19 1 4 3 -2 6 -13 5 -11 0 -14 -3 -6 -6z"/>
<path d="M3798 203 c7 -3 16 -2 19 1 4 3 -2 6 -13 5 -11 0 -14 -3 -6 -6z"/>
<path d="M3658 163 c7 -3 16 -2 19 1 4 3 -2 6 -13 5 -11 0 -14 -3 -6 -6z"/>
<path d="M1668 143 c7 -3 16 -2 19 1 4 3 -2 6 -13 5 -11 0 -14 -3 -6 -6z"/>
<path d="M3578 143 c7 -3 16 -2 19 1 4 3 -2 6 -13 5 -11 0 -14 -3 -6 -6z"/>
<path d="M3498 123 c7 -3 16 -2 19 1 4 3 -2 6 -13 5 -11 0 -14 -3 -6 -6z"/>
<path d="M3408 103 c6 -2 18 -2 25 0 6 3 1 5 -13 5 -14 0 -19 -2 -12 -5z"/>
<path d="M3318 83 c7 -3 16 -2 19 1 4 3 -2 6 -13 5 -11 0 -14 -3 -6 -6z"/>
<path d="M3188 63 c12 -2 30 -2 40 0 9 3 -1 5 -23 4 -22 0 -30 -2 -17 -4z"/>
<path d="M3073 43 c9 -2 25 -2 35 0 9 3 1 5 -18 5 -19 0 -27 -2 -17 -5z"/>
</g>
</svg>
